<svg enable-background="new 0 0 512.04 512.04" viewBox="0 0 512.04 512.04" xmlns="http://www.w3.org/2000/svg"><path d="m0 0h512.04v512.04h-512.04z" fill="#fff"/><path d="m258.02 4h250.02v250.02h-250.02z"/><path d="m4 258.02h250.02v250.02h-250.02z"/><path d="m4 4h250.02v250.02h-250.02z" fill="#bf232e"/><path d="m258.02 258.02h250.02v250.02h-250.02z" fill="#bf232e"/><path d="m436.35 293.16h-108v19.34h44.33v159.38h19.34v-159.38h44.33z"/><path d="m88.93 198.91 15.73-10.49c2.45 4.89 10.14 12.23 22.02 11.88s18.17-5.94 19.22-17.83 0-144 0-144h22.37v141.55s-10.49 39.84-40.89 39.5-38.45-20.61-38.45-20.61z"/><g fill="#bf232e"><path d="m173.16 472.12h24.47l-44.27-74.56s31.22-11.65 31.69-49.4-25.86-51.26-49.4-51.96c-10.22-.3-20.67-.34-29.21-.29h-18.96v.29c-.03 0-.06 0-.06 0l.06.35v175.34h19.34v-70.95h26.83zm-66.35-163.24c5.39.2 15.65.56 23.53.59 16.08.06 34.3 12.04 33.73 38.91-.52 24.76-12.73 36.76-33.97 37.4h-23.29z"/><path d="m429.53 185.11c-8.06 16.15-20.11 26.27-35.23 26.27-31.46 0-46.6-36.88-46.6-82.37s13.28-82.37 46.6-82.37c13.77 0 24.99 8.39 32.97 22.07l18.93-6.79c-11.49-20.39-29.12-33.22-51.9-33.22-45.67 0-70.14 44.91-70.14 100.31s24.23 100.31 70.14 100.31c23.67 0 42.04-14.31 53.56-36.73z"/></g></svg>