<svg height="500" width="500" xmlns="http://www.w3.org/2000/svg"><path d="m0 0c3.5.5625 3.5.5625 5.5 2.1875 1.31794101 3.1301099.81054223 5.13283109 0 8.375-.99.33-1.98.66-3 1l1 25 6 3c4.0341607 3.92210068 5.02706409 7.60462811 6 13-.33.66-.66 1.32-1 2 .708647.12231491 1.41729401.24462982 2.14741516.37065125 2.97883078.65720164 5.65035333 1.59659791 8.49394226 2.69892883 1.66279244.64120537 1.66279244.64120537 3.35917664 1.29536438 1.78444267.69527046 1.78444267.69527046 3.60493469 1.40458679 1.24672099.48257126 2.49357492.96479919 3.74055481 1.44670105 3.28056072 1.26892948 6.55917971 2.54280446 9.83744812 3.81764221 2.6519749 1.03037229 5.30526368 2.05733384 7.95864391 3.0840807 22.80299189 8.82401502 22.80299189 8.82401502 30.94157887 12.18873119 1.89010991.80671859 1.89010991.80671859 3.91630554.6933136.515625-.7425 1.03125-1.485 1.5625-2.25 3.3013384-3.72458692 6.62711777-5.50452119 11.4375-6.75 4.15551536-.08891973 8.24382679.12191339 12 2 .21269531-.78117187.42539062-1.56234375.64453125-2.3671875 2.18211246-5.84831293 5.4787119-11.09107204 8.63085937-16.46484375.73573243-1.29357422.73573243-1.29357422 1.48632813-2.61328125.45334717-.77875488.90669434-1.55750977 1.3737793-2.35986328 1.01766386-2.5836764.77835969-3.62634561-.13549805-6.19482422-.48475186-4.06873692-.69661245-6.99378201 1.6875-10.4375 2.65067724-1.79099814 4.10632862-2.48616259 7.3125-2.5625 3.1875 1 3.1875 1 6 3 1.5625 3.375 1.5625 3.375 2 7-1.32234757 2.97528203-2.70912149 4.70912149-5 7-3.625.125-3.625.125-7 0-.19722656.76699219-.39445312 1.53398438-.59765625 2.32421875-1.23764821 3.24408626-2.60319939 5.80960982-4.3984375 8.7578125-.55751953.93263672-1.11503906 1.86527344-1.68945313 2.82617187-1.17017999 1.93986361-2.36579254 3.86460584-3.5859375 5.7734375-1.6374015 2.79570434-2.93033021 5.1750401-3.72851562 8.31835938.82956635 2.76495165 2.00325921 4.67572286 3.65600586 7.0324707 2.68880453 3.93625354 1.99666588 8.44093497 1.34399414 12.9675293-1.40657297 3.75086125-2.95577823 6.39066705-6 9 1.40289409 4.66562491 3.36044003 8.82319775 5.6953125 13.078125.35230682.65264832.70461365 1.30529663 1.06759644 1.97772217 1.1161897 2.06719684 2.23844453 4.1310009 3.36209106 6.19415283 1.13054819 2.07755647 2.25961867 4.15583601 3.3835144 6.23699951.69715663 1.29092096 1.39815104 2.57977817 2.10333252 3.86633301 2.38815308 4.42138187 2.38815308 4.42138187 2.38815308 6.64666748.72445313-.03480469 1.44890625-.06960937 2.1953125-.10546875 10.1713242-.28479708 10.1713242-.28479708 14.8046875 3.10546875 3.46987891 3.65250412 4.30013186 6.5965683 4.5 11.5-.18639697 4.89957754-1.14787312 7.77541458-4.5 11.5-2.65799923 2.41636294-3.35294333 3-7 3 .15146484 1.17506104.30292969 2.35012207.45898438 3.56079102.56351729 4.38095011 1.12123355 8.76262287 1.67724609 13.14453125.24094294 1.89245316.48343553 3.78470972.72753906 5.67675781.35162427 2.72759967.6975757 5.45586968 1.04248047 8.18432617.1093689.83882217.21873779 1.67764435.3314209 2.54188538.58464656 4.67408457.87296884 9.18122151.7623291 13.89170837.7425.165 1.485.33 2.25.5 4.0332382 2.19994811 5.30923157 5.23191717 6.75 9.5.63305877 5.2453441-.13950579 8.56130208-3 13-2.65801881 2.58618046-4.20316844 3.87525984-7.89453125 4.453125-4.99445187 2.48780244-5.75607573 6.96763174-7.48046875 12.046875-.53173828 1.46373047-.53173828 1.46373047-1.07421875 2.95703125-1.83996898 4.66030441-1.83996898 4.66030441-2.55078125 9.54296875 1.23426567 1.08474655 2.51355302 2.11860865 3.8125 3.125 4.87568933 4.1766967 6.53525774 7.78366216 7.53125 14.03125.45229466 6.4225842-1.68805319 11.62002364-5.34375 16.84375-5.2296294 5.00076159-9.91020723 6.13376967-17 6 .00785522.93344238.00785522.93344238.01586914 1.88574219.1020251 14.07688083-.14545966 28.06336191-1.01586914 42.11425781.639375.309375 1.27875.61875 1.9375.9375 2.0625 1.0625 2.0625 1.0625 3.0625 2.0625.36395977 3.85797355.56007535 6.15988698-1.625 9.4375-3.07317115 2.02182313-4.75747881 2.09005517-8.375 1.5625-2.375-1-2.375-1-4-3-.50989217-2.74998023-.48737613-5.24775834 0-8 1.375-2 1.375-2 3-3h2c.02505615-.94206299.0501123-1.88412598.07592773-2.85473633.09601244-3.54679943.19518275-7.09348304.29638672-10.64013672.04290216-1.52535637.08460123-3.05074714.125-4.57617187.23067745-8.6774591.54917169-17.29351236 1.50268555-25.92895508-1.00667725-.31638428-1.00667725-.31638428-2.03369141-.63916016-6.71630859-2.11083984-6.71630859-2.11083984-8.96630859-4.36083984-3.22067232.35370587-5.17482609 1.66995823-7.66015625 3.66796875-.7019751.55679443-1.4039502 1.11358887-2.12719727 1.68725586-.75079834.60465088-1.50159668 1.20930176-2.27514648 1.83227539-7.32304899 5.80327017-14.75212883 11.42522376-22.30297852 16.9284668-1.47111009 1.07433031-2.93795358 2.15453112-4.40014648 3.24096679-1.58126613 1.16279732-3.18248484 2.29868581-4.796875 3.41503907-.82628906.59216308-1.65257812 1.18432617-2.50390625 1.79443359-1.13417358.7899939-1.13417358.7899939-2.29125977 1.59594727-1.92106761 1.7753978-1.92106761 1.7753978-1.85766601 4.62402343.23353613 1.86209048.52057209 3.71801421.85205078 5.56518555.57633739 4.20168549-.41136569 6.05915837-2.63671875 9.6484375-2.68893428 2.81348982-5.26179386 4.75393129-9 6-2.31 0-4.62 0-7 0v23l4 2c1.65479843 2.8367973 2 4.71365531 2 8-1.39752095 4.19256285-3.29017027 5.66418128-7 8-4.25830478.67236391-6.18496736.49610683-9.875-1.75-2.125-2.25-2.125-2.25-3.125-6.25-12.21.33-24.42.66-37 1-.99 1.98-1.98 3.96-3 6-3.22323237 3.33834781-6.43373643 3.8452114-11 4-4.56833627-1.44663982-7.61106632-2.75300678-10-7-.33-.99-.66-1.98-1-3-8.91-.66-17.82-1.32-27-2-.66 1.65-1.32 3.3-2 5-3.68497796 2.45665197-6.71971786 2.70086491-11 2-2.8100346-1.79363911-4.50940468-3.01880935-6-6-.47400821-6.39911081-.47400821-6.39911081 1.546875-8.9609375 1.6416414-1.89541031 1.6416414-1.89541031 1.484375-4.0546875-.1753125-.73734375-.350625-1.4746875-.53125-2.234375-.30550781-1.29164063-.30550781-1.29164063-.6171875-2.609375-1.30033724-4.6259785-2.71745168-9.21308819-4.20507812-13.78222656-1.67773438-5.16591943-1.67773438-5.16591943-1.67773438-7.35839844-.8353125-.00386719-.8353125-.00386719-1.6875-.0078125-6.48784774-.32877607-10.75224665-2.32257556-15.3125-6.9921875-2.16916763-3.28534126-2.26962408-6.04702553-2.25-9.9375-.00773437-1.52947266-.00773437-1.52947266-.015625-3.08984375.27038965-3.02597829.99321364-5.23091272 2.265625-7.97265625-1.26767077-1.29477062-2.53926224-2.58570339-3.8125-3.875-.70769531-.71929687-1.41539062-1.43859375-2.14453125-2.1796875-2.08696069-2.09890187-2.08696069-2.09890187-5.04296875-3.9453125 0-.66 0-1.32 0-2-.59332123-.26440384-1.18664246-.52880768-1.79794312-.80122375-2.28477958-1.24380961-3.66701543-2.48562049-5.43496704-4.37919617-.60808502-.64374069-1.21617004-1.28748139-1.84268188-1.95072937-.97191788-1.03916313-.97191788-1.03916313-1.96347046-2.09931946-1.39833766-1.45772632-2.79812344-2.91406464-4.19921875-4.36914063-2.1993528-2.29195454-4.38905672-4.59039837-6.55517578-6.91381835-2.09825015-2.2439686-4.23020629-4.45083806-6.37060547-6.65454102-.63579987-.69884811-1.27159973-1.39769623-1.92666626-2.11772156-2.73250994-2.76426391-4.58125739-4.55207141-8.52272034-5.03358459-5.03012953.25291181-5.03012953.25291181-9.03266906 3.00605774-1.36850869 2.07408732-2.39314481 4.17404292-3.41638184 6.43821716-.81715607 1.64219942-1.63753083 3.28280074-2.4609375 4.921875-.40444336.82822266-.80888672 1.65644531-1.22558594 2.50976562-2.25225214 4.39901238-4.9476698 8.5350442-7.64770508 12.67041016-2.10406787 3.11573177-2.10406787 3.11573177-2.25927734 6.70898438.21648193.68110839.43296387 1.36221679.65600586 2.06396484.14002441.67160156.28004883 1.34320313.42431641 2.03515625.87752903 3.2214859 1.53337449 5.36804196 4.52001953 7.078125 2.46378956.80576766 4.88892803 1.37913483 7.43066406 1.88671875 1.27617187.30357422 1.27617187.30357422 2.578125.61328125 5.96609604 1.40194671 5.96609604 1.40194671 12.046875 1.38671875l2-2c6.12133891-.55648536 6.12133891-.55648536 8.875 1.1875 1.47905406 2.38292043 1.99091307 3.99667448 2.125 6.8125-1.1415919 2.2831838-2.19012683 4.19012683-4 6-3.3125.375-3.3125.375-7 0-2.4375-2.375-2.4375-2.375-4-5 0-.66 0-1.32 0-2-1.134375-.26554687-2.26875-.53109375-3.4375-.8046875-1.52084048-.35674036-3.04167341-.71351292-4.5625-1.0703125-1.11568359-.26103516-1.11568359-.26103516-2.25390625-.52734375-4.92661734-1.15668407-9.83923191-2.35978883-14.74609375-3.59765625-.268125.61875-.53625 1.2375-.8125 1.875-1.1875 2.125-1.1875 2.125-4.1875 4.125-3.39107371.54602034-6.60874176.54627924-10 0-2.82424288-2.19022918-4.41508603-3.83017207-6-7-.35032356-5.34243433-.4561069-8.64786539 3-13 3.31371-2.20914 4.3446021-2.22481553 8.1875-2.125.90105469.01804687 1.80210937.03609375 2.73046875.0546875 1.03060547.03480469 1.03060547.03480469 2.08203125.0703125.25378418-.69150146.50756836-1.38300293.76904297-2.09545898 1.40059644-3.30481871 3.10585606-6.28338346 4.92626953-9.37719727.72296104-1.241359 1.445608-2.48290096 2.16796875-3.72460937 1.13326475-1.93974934 2.26914749-3.87782662 3.41064453-5.81274415 1.10651855-1.87898927 2.20213654-3.76399355 3.29638672-5.65014648.65758301-1.12027588 1.31516602-2.24055176 1.99267578-3.39477539 1.72935873-2.99805674 1.72935873-2.99805674 1.43701172-6.94506836-.515625-.78375-1.03125-1.5675-1.5625-2.375-1.4375-2.625-1.4375-2.625-1.375-5.625 1.07059889-3.42591644 2.44668833-5.43370918 4.9375-8h2c-.10022461-.67794113-.20044922-1.35588226-.30371094-2.05436707-1.04239821-7.05587328-2.07978252-14.11247075-3.11425781-21.16950988-.38633294-2.63371928-.77474495-5.26710811-1.1640625-7.90039063-.55935402-3.78491465-1.11410852-7.5704792-1.66796875-11.35620117-.26248535-1.76587715-.26248535-1.76587715-.53027344-3.56742859-.16016601-1.1007637-.32033203-2.2015274-.48535156-3.33564758-.14211914-.96596604-.28423828-1.93193207-.43066406-2.9271698-.29252604-2.59024573-.35932773-5.08529921-.30371094-7.68928528-1.051875-.061875-2.10375-.12375-3.1875-.1875-4.49025398-.95693937-5.96233129-2.29170336-8.8125-5.8125-1.76074588-5.28223764-1.79625804-9.37685861.625-14.3125 2.6608743-3.01098934 4.6031922-4.32964919 8.375-5.6875 3.375-.1875 3.375-.1875 6 0 .2582959-1.27738037.5165918-2.55476074.78271484-3.87084961 1.16408646-5.22538534 2.86334404-10.17122882 4.69384766-15.19555664.33011078-.91949936.66022156-1.83899872 1.00033569-2.78636169 1.04427634-2.90510747 2.09605123-5.80743211 3.14810181-8.70973206.71404124-1.98224199 1.42758775-3.96466227 2.140625-5.94726562 1.73908049-4.83215754 3.48488625-9.66183594 5.234375-14.49023438-.63228516-.59748047-.63228516-.59748047-1.27734375-1.20703125-.54785156-.52980469-1.09570313-1.05960937-1.66015625-1.60546875-.54527344-.52207031-1.09054688-1.04414062-1.65234375-1.58203125-2.70941259-3.08467749-2.74312421-6.56561829-2.69921875-10.5390625.47302446-3.38148565 2.1446132-5.49306709 4.2890625-8.06640625 3.36999202-2.24666134 4.56105462-2.2457371 8.5-2.1875.9590625.00644531 1.918125.01289062 2.90625.01953125 2.59375.16796875 2.59375.16796875 5.59375 1.16796875 2.35347077-1.4386474 2.35347077-1.4386474 4.8125-3.625.97453125-.82628906 1.9490625-1.65257813 2.953125-2.50390625 4.11209913-3.61139655 8.09591479-7.36102038 12.07983398-11.11254883 4.8446497-4.539549 9.87288938-8.73037282 15.15454102-12.75854492-.33-.99-.66-1.98-1-3-.53776267-4.62828525-.41295228-8.10802307 1.5625-12.375 3.04146781-3.27542687 5.10182851-4.48777469 9.4375-5.625 4.54674649.2534504 7.95915749 1.18763512 11.5625 4 1.4375 2 1.4375 2 1.4375 4 5.70690482-1.49287731 11.41368599-2.98622615 17.12036133-4.47998047 1.93453778-.5063092 3.86910719-1.0124976 5.80371094-1.51855469 1.87946961-.49165094 3.75889495-.98347119 5.63827514-1.47546386 1.85213267-.4848432 3.70436612-.96930159 5.55670166-1.45336914 4.16930873-1.09136314 8.33567257-2.19109125 12.4937439-3.32458496.69435654-.18858582 1.38871307-.37717164 2.10411072-.57147217 1.8275811-.49804063 3.65390383-1.00069263 5.48011779-1.50372315 2.80297852-.67285156 2.80297852-.67285156 5.80297852-.67285156.020625-.70125.04125-1.4025.0625-2.125 1.38053355-4.23363621 4.2977602-6.43178884 7.9375-8.875 1.65-.66 3.3-1.32 5-2 0-7.92 0-15.84 0-24-1.98-.99-1.98-.99-4-2-.9375-1.8125-.9375-1.8125-1-4 1.4753159-4.05711872 2.16478662-4.86576928 6.5-5.5625zm-21.52294922 53.81591797c-1.071362.27383514-2.142724.54767029-3.24655151.82980347-4.90459033 1.26106665-9.80907319 2.52251549-14.71243286 3.78836059-2.5909764.66860759-5.18278005 1.33385172-7.77539063 1.99609375-3.72557047.95263345-7.44914925 1.91271525-11.17236328 2.87451172-1.16256317.29591034-2.32512634.59182068-3.5229187.896698-1.61649948.4202092-1.61649948.4202092-3.26565552.84890747-.94962616.24426727-1.89925232.48853454-2.87765503.74020386-2.6260784.72229666-2.6260784.72229666-5.40408325 2.77200317-.91890424 2.36612547-.91890424 2.36612547 0 5 7.10789474 4.90656913 14.86738062 8.85402707 22.4375 13 1.91760048 1.05314221 3.8348484 2.10692195 5.75186157 3.16113281 1.23491879.67807528 2.47072399 1.35453897 3.7074585 2.02929688 2.65880774 1.45238596 5.29918651 2.92459173 7.91226196 4.45800781.79647949.46664062 1.59295899.93328125 2.41357422 1.4140625.669104.40347656 1.33820801.80695313 2.02758789 1.22265625 1.9387981 1.01378952 1.9387981 1.01378952 4.74975586-.28515625l2.125-2.375c3.05100542-2.78570061 3.64021284-2.83267758 7.4375-3.4375 2.43283764-.54658613 2.43283764-.54658613 4.4375-2.1875 3.27577517-7.82794229 4.39833022-16.57662314 5-25-1.36125-.7115625-1.36125-.7115625-2.75-1.4375-4.24290621-2.76492703-5.57732629-6.95772768-7.25-11.5625-2.03236007 0-4.0715614.75390564-6.02294922 1.25341797zm35.02294922 4.74658203c-.680625.763125-1.36125 1.52625-2.0625 2.3125-3.98515186 3.64599-7.82297614 4.98265871-12.9375 6.6875-.8685347 2.56966474-1.53797604 4.99043648-2.125 7.625-.16886719.69996094-.33773437 1.39992188-.51171875 2.12109375-1.03618001 4.39764586-1.78707043 8.77357316-2.36328125 13.25390625.60328125.27972656 1.2065625.55945313 1.828125.84765625 5.58548638 2.80175204 9.13148327 5.12849443 11.171875 11.15234375.2482142 1.73965632.44436932 3.48736726.59375 5.23828125.07927734.89372314.15855469 1.78744629.24023438 2.70825195.05478515.67764405.10957031 1.35528809.16601562 2.0534668 6.45404215 2.17128093 12.91409462 4.3238845 19.37866211 6.46362305 2.19836906.73008626 4.39532742 1.46443465 6.59082031 2.203125 3.15629555 1.06113757 6.31734928 2.10683672 9.47973633 3.1496582.98038742.33326797 1.96077484.66653595 2.97087097 1.00990295.92057694.30038681 1.84115387.60077362 2.78962708.91026307.806082.268694 1.612164.537388 2.44267273.81422424 2.80181237.53611274 4.62405684.26904757 7.34761047-.55079651 2.38038607-1.7077313 4.58372556-3.4264103 6.8125-5.3125 1.3184714-1.08687269 2.63885343-2.17143094 3.9609375-3.25390625.68545898-.56219238 1.37091797-1.12438477 2.07714844-1.70361328 3.62636976-2.91872514 7.35346703-5.70036135 11.08691406-8.47998047.70423096-.52505127 1.40846191-1.05010254 2.1340332-1.59106445 1.64129464-1.22170016 3.28463931-2.44064553 4.9284668-3.65893555-.31710937-.70511719-.63421875-1.41023438-.9609375-2.13671875-1.63931568-4.51736238-1.69507982-9.10485411-2.0390625-13.86328125-7.7825136-3.27654683-15.59658694-6.44934553-23.46875-9.50390625-1.04216675-.40516342-2.0843335-.81032684-3.15808105-1.22776794-2.1844709-.84860416-4.36924803-1.6964204-6.55432129-2.54347229-3.31194892-1.28467755-6.62206879-2.57399034-9.93212891-3.8635254-2.13921282-.83036182-4.27853221-1.66044914-6.41796875-2.49023437-.97223511-.37927139-1.94447021-.75854279-2.94616699-1.14930725-6.77495596-2.61931962-13.61419389-4.97891331-20.52258301-7.2217865zm-91.84375 20.484375c-2.73524408 1.9225991-4.34736904 1.85652832-7.65625 1.765625-1.40765625-.02320312-1.40765625-.02320312-2.84375-.046875-2.65625-.203125-2.65625-.203125-4.68359375-.9921875-2.20222587-.45992828-2.20222587-.45992828-4.3828125 1.5625-.87527344.85851562-1.75054687 1.71703125-2.65234375 2.6015625-.97946707.93860789-1.96129874 1.8747536-2.9453125 2.80859375-.49790039.47550293-.99580078.95100586-1.50878906 1.44091797-2.2151606 2.05401824-4.56103461 3.9285173-6.92089844 5.81298828-.89074219.73347656-1.78148437 1.46695313-2.69921875 2.22265625-1.49740198 1.22366138-2.9982321 2.44387413-4.52978516 3.62451172-7.1772328 5.17142472-7.1772328 5.17142472-10.86474609 12.75439453.26437706 2.78330294.78641137 5.2722517 1.53125 7.9609375v3c1.91547997 1.5494455 1.91547997 1.5494455 4.4609375 2.92578125.94746094.54978516 1.89492187 1.09957031 2.87109375 1.66601563 1.00417969.56783203 2.00835937 1.13566406 3.04296875 1.72070312 1.94548397 1.12079617 3.8907974 2.2418884 5.8359375 3.36328125.95745117.54736816 1.91490234 1.09473633 2.90136719 1.65869141 4.33054462 2.4977152 8.6117826 5.07568342 12.88769531 7.66552734.79796997-.57609009.79796997-.57609009 1.61206055-1.16381836 5.06148069-3.58224283 8.22032905-4.54394021 14.38793945-3.83618164 1.66933058.6599679 3.3364521 1.32558869 5 2 3.79593949-.46776876 6.73035302-1.70515998 10.09765625-3.4765625.96091553-.50273437 1.92183105-1.00546875 2.91186523-1.5234375 1.00748291-.53625 2.01496582-1.0725 3.05297852-1.625 1.03261963-.54398438 2.06523926-1.08796875 3.12915039-1.6484375 6.22933491-3.29952948 12.3659852-6.7026027 18.41381836-10.32421875 3.38440409-1.98205721 6.8607821-3.70342589 10.39453125-5.40234375 0-4.29 0-8.58 0-13-.89605957-.47308594-1.79211914-.94617188-2.71533203-1.43359375-3.39708806-1.79434548-6.79251259-3.59182036-10.1875-5.39013672-1.45594418-.77068106-2.91230933-1.54056748-4.36914063-2.30957031-2.12145842-1.12002464-4.24156535-2.24254797-6.36083984-3.36669922-.69885315-.37044434-1.3977063-.74088867-2.11773682-1.12255859-5.92235636-3.15968861-11.71785688-6.51380807-17.48724365-9.94384766-3.19114435-1.65621351-4.69893331-2.28961921-7.60595703.05078125zm169.84375 25.515625c-.81339844.64324219-1.62679687 1.28648438-2.46484375 1.94921875-9.43803767 7.44748494-18.96898364 14.76883336-28.53515625 22.05078125 3.38631718 1.83849409 6.84815516 2.99714028 10.515625 4.1640625 1.25039063.39960938 2.50078125.79921875 3.7890625 1.2109375 1.31508175.41673742 2.63018621.83340318 3.9453125 1.25 1.33082453.42418008 2.66155479.84865608 3.9921875 1.2734375 3.25168811 1.03677012 6.50430942 2.07050494 9.7578125 3.1015625.42410156-.48597656.84820312-.97195312 1.28515625-1.47265625 1.71484375-1.52734375 1.71484375-1.52734375 5.15234375-1.96484375 3.5625.4375 3.5625.4375 6.0625 1.9375 2.31616593 3.86027654 1.54913219 6.16358695.5 10.5-3 2-3 2-6.49609375 1.46875-4.58480438-.10898735-6.60840004 1.98924216-9.8515625 5.0625-1.94107996 1.95676401-3.82965831 3.95831048-5.71484375 5.96875-.96235831.99396685-1.92653924 1.98617244-2.89257812 2.9765625-3.92119527 4.04395457-7.7605389 8.14531229-11.41992188 12.4296875-5.18435863 6.01147737-10.93197738 11.50538273-16.5625 17.09375-1.17276009 1.16773374-2.34528798 2.33570074-3.51757812 3.50390625-2.84563877 2.83472609-5.69439641 5.66628199-8.54492188 8.49609375.66.33 1.32.66 2 1 1.93514531-.68951059 1.93514531-.68951059 4.08129883-1.8515625 1.27228203-.64899261 1.27228203-.64899261 2.57026672-1.31109619 1.38870552-.72385895 1.38870552-.72385895 2.8054657-1.46234131.96290451-.49401306 1.92580902-.98802612 2.91789246-1.49700928 3.14984388-1.61838368 6.29371463-3.24802083 9.43757629-4.87799072 2.15004627-1.10776496 4.30043767-2.21486032 6.45117188-3.32128906 5.29130825-2.72424683 10.57795254-5.45740758 15.86334228-8.19311524 4.06240947-2.10063619 8.12964734-4.19182591 12.19720459-6.2824707 13.46795057-6.86136395 13.46795057-6.86136395 26.67578125-14.203125-.05220703-.87011719-.05220703-.87011719-.10546875-1.7578125-.18157219-5.23965449.21481588-8.68385029 3.10546875-13.2421875l2-2c-.35551028-3.7796356-1.6822498-6.62608866-3.51171875-9.9140625-.51111328-.92683594-1.02222656-1.85367188-1.54882813-2.80859375-.80534179-1.43666016-.80534179-1.43666016-1.62695312-2.90234375-1.04557292-1.88802083-2.09114583-3.77604167-3.13671875-5.6640625-.51868652-.93102539-1.03737305-1.86205078-1.57177734-2.82128906-2.56177199-4.61508877-5.08319902-9.25208977-7.60400391-13.88964844-.68578125.03077637-1.3715625.06155273-2.078125.09326172-6.92208542.26934727-11.71585071-.99024958-17.921875-4.09326172zm-85 11c-.7425.928125-1.485 1.85625-2.25 2.8125-3.5952058 4.44421942-7.51450866 6.14276656-13.125 6.875-1.19625.103125-2.3925.20625-3.625.3125-1.93048825 8.78642782-3.12164666 17.63722939-4.28710938 26.55029297-.33813366 2.57655895-.68539248 5.15178245-1.03320312 7.72705078-.21930386 1.66008318-.43807225 3.3202372-.65625 4.98046875-.10309479.75854279-.20618958 1.51708557-.31240845 2.2986145-.62463864 4.85517332-.80170137 9.54796006-.71102905 14.443573 2.25042343.85317249 2.25042343.85317249 5 1 2.56708957-1.50348779 2.56708957-1.50348779 5-3.8125.96679688-.83660156 1.93359375-1.67320312 2.9296875-2.53515625.50499023-.44102051 1.00998047-.88204102 1.53027344-1.33642578 2.48060901-2.11960725 5.071741-4.08682208 7.66503906-6.06591797.53302734-.40774658 1.06605469-.81549316 1.61523438-1.2355957 1.13706934-.86955289 2.27478811-1.73825707 3.41308593-2.60620118 2.72148501-2.07529422 5.43950835-4.15510854 8.15795899-6.234375 1.45955796-1.11619959 2.91935634-2.23208488 4.37939453-3.34765624 3.29086206-2.51481689 6.57995739-5.03176815 9.86010742-7.56054688.54760986-.42216797 1.09521973-.84433594 1.65942383-1.27929688 1.56591154-1.20825476 3.13098829-2.41759118 4.69604492-3.62695312 2.17429848-1.65817712 4.35560067-3.29294748 6.5625-4.90625.56098389-.41217773 1.12196777-.82435547 1.69995117-1.24902344 1.55058436-1.13582089 3.10678547-2.26396251 4.66333008-3.39160156.71542969-.598125 1.43085938-1.19625 2.16796875-1.8125 0-.66 0-1.32 0-2-6.08589758-1.99792638-12.17327546-3.99129025-18.26171875-5.98144531-2.07228659-.67797833-4.14422832-1.35701166-6.21582031-2.03710938-2.97273796-.97574078-5.94668375-1.94771664-8.92089844-2.91894531-1.39537491-.45934937-1.39537491-.45934937-2.81893921-.92797852-.86074127-.28029052-1.72148254-.56058105-2.60830688-.84936523-.75944916-.2487085-1.51889832-.49741699-2.30136109-.75366211-1.86914269-.62249217-1.86914269-.62249217-3.87295532-.53149414zm-35.21630859 3.68408203c-.80260254.43683106-1.60520508.87366211-2.43212891 1.32373047-.91322021.48694336-1.82644043.97388672-2.76733398 1.47558594-.97654541.54172851-1.95309082 1.08345703-2.95922852 1.64160156-1.00554932.54172852-2.01109863 1.08345703-3.04711914 1.64160156-3.20114403 1.72927061-6.38954012 3.48065324-9.57788086 5.23339844-2.1360074 1.16016482-4.2727149 2.31904166-6.41015625 3.4765625-5.2061229 2.8239549-10.4017846 5.66644521-15.58984375 8.5234375.49886719 1.60681641.49886719 1.60681641 1.0078125 3.24609375 1.5308773 5.79202002.97242908 9.67579409-1.5703125 15.06640625-3.22666157 3.55760122-5.87197133 4.3178414-10.4375 5.6875.55111057 7.57067639 1.59722624 14.91162594 3.06640625 22.35546875.19834946 1.02764969.39669891 2.05529938.60105896 3.11408997.62661568 3.24032009 1.26068755 6.47912689 1.89503479 9.71794128.42953309 2.21409642.85857408 4.42828837 1.28710938 6.64257812 1.04444982 5.39109023 2.0950037 10.78096268 3.15039062 16.16992188.75128174.13132324 1.50256348.26264648 2.27661133.39794922.98766357.17547363 1.97532715.35094726 2.99291992.53173828.97815674.17257324 1.95631348.34514648 2.96411133.52294922 3.0296264.5994548 5.87839422 1.45462045 8.76635742 2.54736328 3.74527669-4.58483792 7.47686473-9.18032225 11.19873047-13.78417969 1.70367429-2.09576414 3.42413758-4.17648986 5.14892578-6.25488281 1.00959706-1.23658541 2.01873475-2.47354605 3.02734375-3.7109375.48186768-.57121582.96373535-1.14243164 1.46020508-1.73095703 2.53192607-2.96244649 2.53192607-2.96244649 2.97729492-6.66357422-.268125-.61230469-.53625-1.22460937-.8125-1.85546875-.67764706-7.11529412-.67764706-7.11529412 2.25-10.9375 2.53795462-1.90346596 3.76785181-2.45714941 6.75-3.0625 1.00165785-7.17097531 1.99802436-14.34267152 2.99072266-21.51489258.33830035-2.43962232.67780986-4.87907728 1.01855468-7.31835937.48967691-3.5069718.97499665-7.01452322 1.45947266-10.5222168.15311646-1.08975632.30623291-2.17951263.46398926-3.30229187.14014526-1.02068069.28029053-2.04136139.42468262-3.0929718.12435424-.89490647.24870849-1.78981293.37683105-2.71183777.27018032-2.57975975.50334594-4.95046443.26574707-7.53742981-2.72388597-2.28834023-2.72388597-2.28834023-6-4-.63115723-.40879395-1.26231445-.81758789-1.91259766-1.23876953-2.09674573-1.00289152-2.09674573-1.00289152-4.30371093-.07714844zm-104.47119141 8.75341797c-3.02496241 2.04389352-5.72831145 2.13273118-9.3125 2.5625-2.08673333 5.77808603-4.16780771 11.55816868-6.24389648 17.34008789-.70551802 1.96245874-1.41251989 3.92438474-2.12109375 5.88574219-1.02427277 2.83605897-2.04301043 5.67405683-3.06079102 8.51245117-.31262283.86192459-.62524567 1.72384918-.94734192 2.6118927-2.19353545 6.14046377-3.98987296 12.33903089-5.62687683 18.64982605.63292969.61359375 1.26585937 1.2271875 1.91796875 1.859375 2.35548321 2.4217726 3.26325012 3.8655005 4.08203125 7.140625-.20204972 2.69009199-.62082674 5.32669214-1 8 1.09671021.56714722 1.09671021.56714722 2.21557617 1.14575195 3.32484057 1.72058192 6.64839236 3.4436389 9.97192383 5.16674805 1.15048828.59490234 2.30097656 1.18980469 3.48632812 1.80273438 1.11181641.57685546 2.22363282 1.15371093 3.36914063 1.74804687 1.5317688.79337769 1.5317688.79337769 3.09448242 1.6027832 2.86254883 1.53393555 2.86254883 1.53393555 5.54736328 3.22998047 2.30798317 1.54932341 2.30798317 1.54932341 5.31518555 1.30395508.54188965-.97102661.54188965-.97102661 1.09472656-1.96166992 6.48810608-11.62059554 12.98864361-23.23317314 19.59277344-34.78833008.49209961-.86133545.98419922-1.7226709 1.49121094-2.61010742.46051758-.8041333.92103515-1.6082666 1.39550781-2.43676758.42120117-.73661865.84240234-1.4732373 1.27636719-2.23217773.9705998-1.66432716 1.99030545-3.29987166 3.02050781-4.92797852.37253906-.67417969.74507813-1.34835938 1.12890625-2.04296875-.56362302-2.04836882-.56362302-2.04836882-2-4-2.55146444-4.1215964-3.00717015-6.12212783-2.1875-10.75.24104542-2.65932433.24104542-2.65932433-.8125-5.25-4.23448795-3.57250727-8.86239327-6.13554628-13.72802734-8.75341797-3.62967711-1.99152496-7.12565934-4.19618135-10.64697266-6.37158203-5.05523198-3.83903026-5.05523198-3.83903026-10.3125-2.4375zm181.65063477 7.13720703c-2.84957167 2.62734972-5.47892906 5.36930944-8.01245118 8.30224609-3.19410359 3.47633603-6.95604211 6.10947233-10.76318359 8.87304688-1.41042245 1.07044725-2.81805222 2.14458561-4.22265625 3.22265625-.66918457.51062988-1.33836914 1.02125977-2.02783203 1.54736328-3.94067159 3.01088369-7.86959684 6.03696196-11.79638672 9.06591797-2.21296855 1.70101314-4.4307418 3.39372554-6.65625 5.078125-.58297852.4431958-1.16595703.8863916-1.76660156 1.34301758-1.61240356 1.2253442-3.22749613 2.44714771-4.84277344 3.66870117-2.84922058 2.30337805-5.33815584 4.68944494-7.875 7.32421875 6.27723755-2.03444168 12.45610488-4.26143894 18.61328125-6.6328125 1.36838768-.52422295 1.36838768-.52422295 2.76441956-1.05903625 2.9791639-1.14206174 5.95712628-2.28720808 8.93479919-3.43315125 1.01974915-.3922879 2.03949829-.78457581 3.09014893-1.18875122 1.03453308-.39798798 2.06906616-.79597595 3.13494873-1.20602417 1.04927673-.4036528 2.09855346-.8073056 3.17962646-1.22319031 2.15559703-.8293692 4.31107271-1.65905388 6.46643067-2.48904419 6.49502715-2.49895257 12.99735412-4.9775263 19.50724792-7.43748474 4.08744954-1.54574708 8.17157281-3.10015951 12.25523376-4.65588379 1.95017693-.74050355 3.90186185-1.47704796 5.85504151-2.20959472 2.71355341-1.01839292 5.42146932-2.05056304 8.12850952-3.08612061.80812637-.29924881 1.61625275-.59849762 2.4488678-.90681458 1.90916773-.73843566 3.77186334-1.59501844 5.6214447-2.47209167.33-.99.66-1.98 1-3-21.50903361-10.49773353-21.50903361-10.49773353-43.03686523-7.42529297zm34.11450195 16.07739258c-1.51499336.58414169-1.51499336.58414169-3.06059265 1.18008423-1.10132767.43565277-2.20265534.87130554-3.33735657 1.32015991-1.15131912.44693207-2.30263824.89386414-3.48884583 1.3543396-3.12767156 1.21618225-6.25189611 2.44054526-9.37484359 3.66876602-3.22978891 1.26803973-6.46362625 2.52566499-9.6971016 3.78426743-5.21551452 2.0315524-10.42862787 4.06914422-15.63989257 6.11157226-6.76596304 2.65160397-13.53741481 5.28892358-20.31103516 7.92089844-7.00427952 2.723573-14.00827891 5.44784259-21.0078125 8.18359375-.70558548.27500336-1.41117096.55000671-2.13813782.83334351-3.55731594 1.38935819-3.55731594 1.38935819-7.02201843 2.99087524-.72319347 2.02008024-.72319347 2.02008024-1.3125 4.375-.98288044 3.04547683-1.47971937 4.42333056-3.8125 6.6875-3.01928415.98454918-4.03900351.76575785-7.0625.3125-2.40924128-.20607887-2.40924128-.20607887-4.8125.625-3.37616586 3.38707432-5.95347739 7.19968234-8.65576172 11.13037109-2.65034612 3.68622423-5.69169781 7.05128777-8.67773437 10.46606446-2.57323127 2.9824141-4.74912598 5.96114335-6.66650391 9.40356445 1.65 1.98 3.3 3.96 5 6 20.47059724-5.55837605 40.73644318-11.73770862 61-18 .18393311-1.03060547.18393311-1.03060547.37158203-2.08203125.16870606-.90105469.33741211-1.80210937.51123047-2.73046875.16387207-.89332031.32774414-1.78664062.49658203-2.70703125.99872547-3.99175875 2.94607525-6.44072776 6.41357422-8.59375 2.68396657-1.07833701 4.75839633-1.11825132 7.64453125-1.07421875.92683594.00644531 1.85367188.01289063 2.80859375.01953125 2.75390625.16796875 2.75390625.16796875 5.171875 1.08203125 3.18370981.10596311 3.6033428-.49055003 5.88671875-2.59765625 1.20568669-1.23629464 2.3953059-2.48841649 3.5703125-3.75390625.58652344-.60521484 1.17304688-1.21042969 1.77734375-1.83398438 2.96498473-3.08553905 5.81507225-6.25353503 8.60424805-9.49829101 3.57856908-4.09836768 7.34669716-7.96221637 11.20825195-11.79272461.67817276-.67675781 1.35634552-1.35351562 2.05506897-2.05078125 2.13683033-2.1312955 4.27713551-4.25906093 6.41758728-6.38671875 1.46182123-1.45679779 2.92341187-2.91382701 4.38476562-4.37109375 3.55658838-3.54564598 7.11629454-7.08813364 10.67773438-10.62890625-3.62203571-1.20734524-4.44468486-.70696459-7.92236328.65209961zm-173.07763672 15.34790039c-1.63968908 1.8394301-1.63968908 1.8394301-2.9609375 4.37109375-.54760986.95551758-1.09521973 1.91103516-1.65942383 2.89550781-.57903076 1.04639649-1.15806152 2.09279297-1.75463867 3.17089844-.60416748 1.06573242-1.20833496 2.13146484-1.83081055 3.22949219-1.61227135 2.85044747-3.2109367 5.70805086-4.80572509 8.56829834-1.3190269 2.35486413-2.65493732 4.69990677-3.99230957 7.04438781-1.60843284 2.82029798-3.20846363 5.64534161-4.80865479 8.47032166-.90661377 1.59606079-.90661377 1.59606079-1.83154297 3.22436523-.55703613.99330323-1.11407226 1.98660645-1.68798828 3.01000977-.49218018.87366211-.98436035 1.74732422-1.49145508 2.64746094-1.06659276 2.14690803-1.71380047 4.0264624-2.17651367 6.36816406 3.90596863 2.17019391 7.82030067 4.32418636 11.74316406 6.46362305 1.33314254.72998474 2.66390355 1.46433647 3.9921875 2.203125 1.91023574 1.06148002 3.82849833 2.10693712 5.74902344 3.1496582 1.72814941.95048218 1.72814941.95048218 3.49121094 1.92016602 2.83555016 1.4631459 2.83555016 1.4631459 5.32250976 1.04614257 2.08006049-.95663089 3.4763426-2.14933208 5.1394043-3.72021484 2.69362814-2.54363492 5.10861817-3.74628046 8.5625-5.0625-3.28694874-19.75257653-6.96884157-39.38698422-11-59-1.32 0-2.64 0-4 0zm217 0c-1.13824219.59941406-2.27648437 1.19882813-3.44921875 1.81640625-10.14702566 5.32447604-20.32298956 10.58678671-30.53515625 15.78515625-.97560379.49698898-1.95120758.99397797-2.95637512 1.50602722-4.93582025 2.51404105-9.87344169 5.02443659-14.81388855 7.52937317-10.89817397 5.5399669-21.65412095 11.25544397-32.24536133 17.36303711.0095874.72864258.0191748 1.45728516.02905273 2.20800781.05443752 4.13725147.04784634 7.78249947-1.02905273 11.79199219 1.11316707.86863593 2.22648184 1.73708257 3.33984375 2.60546875.72533936.56581787 1.45067871 1.13163574 2.19799805 1.71459961 1.61257163 1.25491509 3.22735672 2.50699056 4.84423828 3.75634766 4.1579292 3.21425125 8.28559351 6.45379536 12.35229492 9.78295898.74902588.60175049 1.49805176 1.20350098 2.26977539 1.82348633 1.42866351 1.14813872 2.84519034 2.31158684 4.24755859 3.49169922.65299073.51860595 1.30598145 1.03721191 1.97875977 1.5715332.56098389.46075928 1.12196777.92151855 1.69995117 1.39624023 5.79235691 2.40044236 13.46157551-1.39548261 19.12426758-3.26733398 1.41323044-.46043701 1.41323044-.46043701 2.85501099-.93017578 1.97924254-.64617601 3.95757273-1.29515258 5.93502807-1.94677734 3.03915054-1.00097063 6.08130331-1.99236153 9.12402344-2.98242188 1.92466191-.62965 3.84914754-1.25983918 5.7734375-1.890625.91345184-.29793457 1.82690369-.59586914 2.76803589-.90283203.83822296-.27698731 1.67644592-.55397461 2.54006958-.83935547.74055633-.24347168 1.48111267-.48694336 2.24411011-.73779297 1.71116041-.51349388 1.71116041-.51349388 2.70559692-1.64501953.26921577-1.58017952.51543007-3.16430728.75-4.75.97337327-4.873819 2.01636473-7.33937575 6.25-10.25 3.2840768-1.23718667 6.58827388-2.18516056 10-3-.46074405-9.6279619-1.4038827-19.17464659-2.5-28.75-.19589722-1.7322583-.19589722-1.7322583-.39575195-3.49951172-.12721436-1.08812988-.25442871-2.17625976-.38549805-3.29736328-.11408203-.97807617-.22816406-1.95615234-.34570312-2.96386719-.3184987-2.61250211-.3184987-2.61250211-1.37304688-5.48925781-2.22550395-1.13813157-2.22550395-1.13813157-4.875-2-3.52088831-1.23179766-5.58263366-2.2945315-8.125-5zm-290 40c1.02331488 7.23276411 2.04890846 14.46520125 3.07739925 21.69723129.47751539 3.3582526.95424995 6.71661215 1.42919255 10.07522965.54625119 3.86263738 1.09591216 7.72478581 1.64575195 11.58691406.16982895 1.2042865.3396579 2.408573.51463318 3.64935303.24013573 1.68128998.24013573 1.68128998.48512268 3.39654541.13989853.98595154.27979706 1.97190307.42393494 2.98773193.36569577 2.24869012.82879985 4.40966639 1.42396545 6.60699463 1.90863869-.1515283 1.90863869-.1515283 4-1 1.66825712-2.03053315 1.66825712-2.03053315 3.06640625-4.64453125.84473877-1.46759766.84473877-1.46759766 1.70654297-2.96484375.59055176-1.05703125 1.18110351-2.1140625 1.78955078-3.203125.61117676-1.07121094 1.22235352-2.14242187 1.85205078-3.24609375 1.87845698-3.30475612 3.73576917-6.62046829 5.58544922-9.94140625.56928223-1.0214209 1.13856445-2.0428418 1.72509766-3.09521484 3.12232983-5.61833241 6.21523705-11.25208674 9.27490234-16.90478516-3.07747515-3.41329313-6.18311902-5.36336731-10.26171875-7.453125-.59126175-.30508484-1.1825235-.61016968-1.79170227-.92449951-1.24119193-.63875092-2.48424728-1.27389267-3.72904968-1.90557861-1.91310271-.97089411-3.82057261-1.95219041-5.72729492-2.93554688-8.14297851-4.67777465-8.14297851-4.67777465-16.49023438-1.78125zm41 16c-.36649658.65782471-.73299316 1.31564941-1.1105957 1.9934082-1.10290693 1.97821351-2.20666438 3.95595295-3.31103516 5.93334961-1.2666519 2.26803468-2.53177472 4.53692395-3.79541016 6.80664063-2.99895896 5.36939133-6.02232644 10.71369911-9.19702148 15.98144531-.51264404.8561792-1.02528809 1.7123584-1.5534668 2.59448242-.96055085 1.59485582-1.93292557 3.18266572-2.91845703 4.76220703-.64231567 1.07060669-.64231567 1.07060669-1.29760742 2.1628418-.56545532.91604004-.56545532.91604004-1.14233398 1.85058594-.9058496 2.57351836-.37559947 4.32555785.32592773 6.91503906 10.0798392-2.48482539 19.88274655-5.85950569 29.71923828-9.15283203 2.93194231-.9809271 5.86599911-1.95533193 8.80029297-2.92919922 1.86080567-.62070839 3.72148745-1.24178834 5.58203125-1.86328125.87902985-.29166046 1.75805969-.58332092 2.66372681-.88381958.80529144-.27053192 1.61058288-.54106384 2.4402771-.8197937.71072662-.23743927 1.42145324-.47487854 2.15371704-.71951294 1.65349413-.50904289 1.65349413-.50904289 2.64071655-1.63156128.20999945-1.95416157.36832634-3.91400299.5-5.875.22347251-3.31218188.44792065-5.96876196 1.5-9.125-3.49869876-1.91904891-6.99919295-3.83480021-10.5-5.75-.98226562-.53882813-1.96453125-1.07765625-2.9765625-1.6328125-8.85942784-5.71206752-8.85942784-5.71206752-18.5234375-8.6171875zm135 0c-.64844376.196008-1.29688751.39201599-1.96498108.59396362-6.76465568 2.04466974-13.52953393 4.0886018-20.2945404 6.1321106-2.52284336.76218147-5.0456304 1.5245494-7.56835938 2.28710937-3.63144282 1.09766174-7.26308936 2.19464716-10.89477539 3.29150391-1.68477196.50948685-1.68477196.50948685-3.40357971 1.02926636-5.28086389 1.59426563-10.56372134 3.17166264-15.87376404 4.66604614l.625 3.875c.84143765 5.21691344-.48460965 10.04575326-1.625 15.125 5.33388072 1.88328423 10.6723728 3.75260167 16.015625 5.60913086 1.81709202.6335486 3.63286393 1.27089668 5.44726562 1.91210937 2.60794925.92091425 5.22033759 1.82806901 7.83398438 2.73266602.81055847.28952042 1.62111694.57904083 2.45623779.87733459.76048645.26034531 1.5209729.52069062 2.3045044.78892518.66618347.23316421 1.33236694.46632843 2.01873779.70655822 2.32604916.4513607 3.70716467.18190729 5.92364502-.62672424l2.3125-2c2.6875-2 2.6875-2 6.1875-2 3.52301112-.60231173 3.52301112-.60231173 4.77734375-2.87890625 1.11478072-2.57863419 2.07386512-5.17400503 2.95703125-7.84033203.9314681-2.7748007 1.9288965-5.52348017 2.921875-8.27685547.76312614-2.1670165 1.52351678-4.33499814 2.28125-6.50390625.37890381-1.0629126.75780762-2.1258252 1.14819336-3.22094727.34168213-1.0098999.68336426-2.0197998 1.03540039-3.06030273.31380615-.90814453.6276123-1.81628906.95092773-2.75195312.52497338-3.02585912.16375257-3.96763746-1.57202148-6.46679688-1.32163364-1.34493125-2.65382995-2.67962818-4-4zm26 5c-.825.474375-1.65.94875-2.5 1.4375-3.58714916 1.60140587-5.37670069 1.73120006-9.21875 1.66015625-.98935547-.01409912-1.97871094-.02819824-2.99804688-.04272461-.75345703-.01812744-1.50691406-.03625488-2.28320312-.05493164-1.76490966 4.90463909-3.50991346 9.81573663-5.23681641 14.73388672-.59027438 1.67217365-1.18594981 3.34245092-1.78710937 5.01074219-.86306974 2.39804995-1.7065016 4.80224362-2.54638672 7.20849609-.27280792.74493713-.54561584 1.48987427-.82669067 2.25738525-1.4102113 3.99672384-1.4102113 3.99672384-.9423523 8.10491944 1.99500358 2.51099367 1.99500358 2.51099367 4.33935547 4.68457031 1.97175223.04412516 1.97175223.04412516 4.05786133-.61328125.79862457-.21092285 1.59724914-.4218457 2.42007446-.63916016 4.22089491-1.25110465 8.41657493-2.55199359 12.59628296-3.93505859.92746536-.30317139 1.85493073-.60634277 2.8105011-.91870117 2.93558013-.96062573 5.86918812-1.92712099 8.80278015-2.89379883 1.97969107-.64882402 3.95950773-1.29726498 5.93945312-1.9453125 7.12968651-2.33552023 14.25766345-4.67588232 21.37304688-7.0546875-1.31899461-3.0320323-2.56627286-4.72804079-5.23828125-6.6640625-.6494458-.47783936-1.2988916-.95567871-1.96801758-1.44799805-.69504638-.49927002-1.39009277-.99854004-2.10620117-1.51293945-1.44857592-1.06029784-2.8964824-2.12151081-4.34375-3.18359375-.72703125-.53093262-1.4540625-1.06186523-2.203125-1.60888672-4.25879629-3.1484395-8.40421316-6.44484046-12.56640625-9.71923828-2.49870494-2.00482631-2.49870494-2.00482631-5.57421875-2.86328125zm82.69042969 13.28515625c-1.26085419.42043579-1.26085419.42043579-2.54718018.84936523-.89805359.30623291-1.79610718.61246582-2.72137451.92797852-.9265741.31074463-1.85314819.62148926-2.80780029.94165039-2.95661725.99299758-5.91034223 1.99430768-8.86407471 2.99584961-2.00502336.67502885-4.01022963 1.34951463-6.015625 2.0234375-4.91359764 1.65256038-9.82484716 3.3119529-14.734375 4.9765625v3c2.26752291 2.04345938 4.51824645 3.90251266 6.9375 5.75.68425049.53133545 1.36850098 1.0626709 2.07348633 1.61010742 1.36702553 1.06123289 2.73637875 2.11947481 4.10815429 3.17456055 1.60482527 1.25028053 3.17633704 2.54312697 4.74023438 3.84423828 1.15242188.95712891 1.15242188.95712891 2.328125 1.93359375.65355469.55300781 1.30710937 1.10601562 1.98046875 1.67578125 1.78123517 1.21085711 1.78123517 1.21085711 3.8515625.8046875 1.96162415-.78542348 3.66747496-1.71153386 5.48046875-2.79296875 5.30326906-2.77216337 10.59551056-2.73161412 16.5-3 2.64-7.26 5.28-14.52 8-22-2.64-1.65-5.28-3.3-8-5-.66-.99-1.32-1.98-2-3-3.44149381 0-5.17811257.22876087-8.30957031 1.28515625zm-52.45288086 17.41137695c-1.7365107.55606682-1.7365107.55606682-3.50810242 1.12336731-1.244897.40619065-2.48979401.81238129-3.77241516 1.23088074-1.29220704.4189666-2.58446962.83776197-3.87678528 1.25639343-2.7038467.87767388-5.40604418 1.76023131-8.10734558 2.64570618-3.4664644 1.13540953-6.93805398 2.25418137-10.41123486 3.36884785-2.66806329.85909219-5.33248217 1.72906699-7.99598598 2.60218143-1.9015978.62049178-3.80677411 1.22998143-5.71196556 1.83934975-1.14821732.38016769-2.29643463.76033539-3.47944641 1.15202331-1.52411751.49630669-1.52411751.49630669-3.07902527 1.00263977-1.13614494.53562813-1.13614494.53562813-2.29524231 1.08207703-.33.99-.66 1.98-1 3 7.48047193 1.2110027 14.96140465 2.41912993 22.44262695 3.62548828 2.53167619.40855641 5.06325578.81771191 7.59472657 1.22753906 13.65895486 2.2108549 27.3227077 4.38577229 41.00561523 6.44384766 1.13101639.17243225 2.26203278.3448645 3.42732239.52252197 1.04903.15595642 2.09806.31191284 3.17887878.47259522 1.37402229.20601837 1.37402229.20601837 2.77580261.41619873 2.54959033.28892647 5.01159318.34418931 7.57502747.29180908.20496094-.77085937.40992188-1.54171875.62109375-2.3359375.26941406-1.00289063.53882813-2.00578125.81640625-3.0390625.26683594-.99773437.53367187-1.99546875.80859375-3.0234375.75390625-2.6015625.75390625-2.6015625 1.75390625-4.6015625-1.00417969-.75023437-2.00835937-1.50046875-3.04296875-2.2734375-.65581055-.49081055-1.31162109-.98162109-1.98730469-1.48730469-1.44649266-1.08241393-2.89376788-2.16378282-4.34179687-3.24414062-3.51653928-2.63082353-7.01111828-5.27960388-10.44433594-8.01855469-.87265503-.69150146-.87265503-.69150146-1.76293945-1.39697266-1.5885698-1.26426291-3.16891206-2.53884357-4.7487793-3.81396484-4.38479256-2.89755298-7.75143869-1.57945793-12.43432617-.0690918zm-167.22802735.73706055c-1.52156456.47179687-1.52156456.47179687-3.07386779.953125-4.61872853 1.46422856-9.23281098 2.94196369-13.84165955 4.43701172-2.43514717.78337044-4.87466675 1.55327848-7.31835937 2.30957031-3.52082191 1.09067777-7.02542132 2.22365733-10.52954102 3.36669922-1.09582901.33056396-2.19165802.66112793-3.32069397 1.00170898-5.36134795 1.62371435-5.36134795 1.62371435-9.12965393 5.4564209-.78306226 2.39276541-.78306226 2.39276541-.79574585 6.04187012 1.82644043 3.10667269 1.82644043 3.10667269 4.75 5.5.92296875.8559375 1.8459375 1.711875 2.796875 2.59375 2.19854861 2.11078079 2.19854861 2.11078079 4.453125 1.90625v2h2v2h2l1 3c1.43929447 1.46146835 1.43929447 1.46146835 3.28125 2.91015625 6.08135809 5.15965226 11.60596488 10.87034376 17.21875 16.52734375 1.11955632 1.1245833 2.23934629 2.24893405 3.359375 3.37304688 2.71624034 2.72714656 5.42930792 5.45741219 8.140625 8.18945312 3.97649799-.52137475 6.82688926-1.5103285 10-4 2.4539779-5.5663784 3.39221027-11.34645397 4.4375-17.3125.31041139-1.58998711.62483326-3.17919676.94335938-4.76757812.62007903-3.1261159 1.21341297-6.2553602 1.78271484-9.39111329.53973137-2.96349647 1.11141479-5.91683147 1.72363281-8.86621093.21113182-1.01938912.21113182-1.01938912.42652893-2.05937195.38222481-1.83082531.7685866-3.66078557 1.15525818-5.49067688.47953179-2.81082792.78064684-5.27407372.53100586-8.11254883-1.79092787-1.6622694-1.79092787-1.6622694-4.1875-2.875-3.35450498-2.02218196-5.53601012-3.71649544-7.6875-7-.70125-1.03125-1.4025-2.0625-2.125-3.125-3.06085774 0-5.08279646.5291338-7.99047852 1.43359375zm43.74047852 6.44140625c-5.4307576 4.7589113-10.81556152 5.29286738-17.75 6.125-1.25012079 5.74233417-2.49501182 11.48576979-3.73535156 17.23022461-.42146312 1.94854302-.84428177 3.89679341-1.26855469 5.84472656-2.30886514 10.6049879-4.57097729 21.15820536-5.99609375 31.92504883.57298828.26627197 1.14597656.53254395 1.73632812.80688477 3.34617939 1.56720307 5.91053403 2.83016799 8.51367188 5.50561523l1.75 1.6875c4.14734808-.23092139 6.7457183-3.11795135 9.6875-5.75 5.04405661-4.39435546 10.21921536-8.53801481 15.5625-12.5625 6.68582231-5.04894075 13.20641962-10.26018781 19.61572266-15.65625 3.29002301-2.75623435 6.58191391-5.39694327 10.12646484-7.8203125 6.22089094-3.8058354 6.22089094-3.8058354 9.58203125-9.82421875-.2444515-2.34600471-.78194388-4.18219351-1.57421875-6.38671875-7.81329317-3.3197105-15.81103488-5.99042745-23.88916016-8.57421875-2.13621257-.68390428-4.27007658-1.37480628-6.40380859-2.06640625-1.36054461-.4379118-2.72121699-.87542688-4.08203125-1.3125-1.22460938-.39348633-2.44921875-.78697266-3.7109375-1.19238281-4.28796846-1.25736341-5.01948163-.93993093-8.1640625 2.02050781zm67.8125 19.3125c-1.79840602 2.61498224-1.79840602 2.61498224-1.3515625 5.11230469.92833781 3.17679955 2.26748497 5.80837049 3.8515625 8.71582031.3075975.56920166.61519501 1.13840332.93211365 1.72485352.9958399 1.83981096 2.00055901 3.67460638 3.00538635 5.50952148.68437678 1.26101268 1.36804956 2.52240769 2.05102539 3.78417969 1.35313453 2.49904257 2.70893653 4.9966068 4.06665039 7.49316406 2.47069901 4.55813523 4.90209555 9.13626141 7.31982422 13.72265625.37060547.70157227.74121094 1.40314453 1.12304688 2.12597656.81387983 1.54095644 1.62680605 3.08241653 2.43945312 4.62402344l1.65625-.484375c2.66027466-.58526043 5.12051936-.72073658 7.84375-.765625.9384375-.02578125 1.876875-.0515625 2.84375-.078125 2.65625.328125 2.65625.328125 4.6875 1.96875.97453125.67289062.97453125.67289062 1.96875 1.359375 4.86059438-.9821064 8.6845258-4.62121457 12.5-7.625 1.50879605-1.17098345 3.01792676-2.34153581 4.52734375-3.51171875.80034668-.62310059 1.60069336-1.24620117 2.42529297-1.88818359 4.5142621-3.5001323 9.06379418-6.953947 13.60986328-10.41259766.86753906-.6614502 1.73507812-1.32290039 2.62890625-2.00439453 5.08558576-3.87599331 10.18644402-7.7305552 15.30859375-11.55810547-.99-3.465-.99-3.465-2-7-10.71737829-1.70041344-21.43553063-3.39585192-32.15469551-5.08496857-4.97747045-.78450505-9.95465954-1.57071203-14.93124199-2.36083221-4.80393387-.76264463-9.6085586-1.52078754-14.41369247-2.27583313-1.83183283-.28864805-3.66341227-.57890893-5.49472809-.87081909-2.56779463-.40902008-5.13643559-.8122627-7.70534897-1.21418762-.75453964-.12155961-1.50907929-.24311921-2.28648377-.36836243-7.777877-1.61819387-7.777877-1.61819387-14.4513092 1.36250305zm-18.5625 2.8125c-1.48886719 1.21623047-1.48886719 1.21623047-3.0078125 2.45703125-6.60062528 5.3825017-13.2112667 10.74541231-19.9296875 15.98046875-6.0892537 4.74937172-12.05264533 9.64281357-18.00512695 14.56201172-3.87954832 3.2060249-7.7627797 6.40586901-11.68237305 9.56298828-.7528125.61101562-1.505625 1.22203125-2.28125 1.8515625-2.09375 1.5859375-2.09375 1.5859375-4.25 2.859375-2.23670449 1.237117-2.23670449 1.237117-4.84375 3.7265625-.57379303 3.10585217-.35307458 5.88398919 0 9 7.80640877 1.08495851 15.58071446 1.25276848 23.44848633 1.29516602 1.49814234.01159831 2.99624093.03217193 4.49414062.06152343 2.18997611.04274406 4.3787502.05884167 6.5690918.0690918 1.94072388.02187378 1.94072388.02187378 3.9206543.04418945 4.19570404-.55270856 6.17067799-2.01790248 9.56762695-4.4699707 1.03850098-.1738623 2.07700195-.34772461 3.14697266-.52685547 3.54549489-1.83069623 3.62167911-2.7637002 4.81933593-6.47363281.58688509-2.18307228 1.14580881-4.37378246 1.68212891-6.56982422.30225494-1.15136444.60450989-2.30272888.91592407-3.48898315.96093123-3.6828258 1.88605403-7.37360422 2.81063843-11.06570435.64479971-2.49669814 1.29190682-4.99280159 1.94140625-7.48828125 1.58804724-6.12225462 3.14678346-12.25141454 4.68359375-18.38671875-1.32-.99-2.64-1.98-4-3zm8 3c-2.36914231 6.03062388-4.22988454 12.08335314-5.91796875 18.3359375-.2621077.96056305-.52421539 1.9211261-.79426575 2.91079712-.54884294 2.01475083-1.09582834 4.03000851-1.64103698 6.04574585-.83767507 3.09525471-1.68219727 6.18858301-2.5275879 9.28173828-.53360689 1.96212982-1.06682403 3.92436569-1.59960937 5.88671875-.25307419.92702728-.50614838 1.85405457-.76689148 2.80917358-.34584892 1.28241074-.34584892 1.28241074-.69868469 2.59072876-.2041301.75308442-.40826019 1.50616883-.61857605 2.28207398-.51146342 1.8637136-.51146342 1.8637136-.43537903 3.85708618 1.65002828 1.35386936 3.3174387 2.68678142 5 4l1 2c2.67977162.39389829 5.27627415.66096094 7.97265625.8515625.79764267.06375824 1.59528534.12751648 2.417099.19320679 2.55697612.20232126 5.11473995.39140563 7.67274475.58023071 1.72988546.13454844 3.45970449.26995387 5.18945312.40625 4.24864094.33287913 8.4980343.65388751 12.74804688.96875.10957031-.59167969.21914063-1.18335938.33203125-1.79296875.15855469-.79019531.31710937-1.58039063.48046875-2.39453125.15082031-.77730469.30164063-1.55460937.45703125-2.35546875.73046875-2.45703125.73046875-2.45703125 2.49902344-4.82495117 1.6256653-2.68938091 1.6256653-2.68938091.15429687-5.88330078-.65476745-1.23710488-1.33404254-2.46142908-2.03222656-3.67456055-.53654205-.99128403-.53654205-.99128403-1.08392334-2.00259399-1.16496639-2.14010245-2.36000716-4.26162854-3.55670166-6.38412476-.79938316-1.45348864-1.5969117-2.90799882-2.39257812-4.36352539-1.92369577-3.50735403-3.87119468-7.00067949-5.82934571-10.4888916-1.39095432-2.48280887-2.76441311-4.97514397-4.13745117-7.46789551-2.97219928-6.03198942-2.97219928-6.03198942-6.890625-11.3671875-1.66617115-.04063832-3.33388095-.042721-5 0zm-74 61c-.66 1.32-1.32 2.64-2 4 .66942627.44279297 1.33885254.88558594 2.02856445 1.34179688 3.09634262 2.05018362 6.19014349 4.10417284 9.28393555 6.15820312 1.05251953.69609375 2.10503906 1.3921875 3.18945312 2.109375 8.07638761 5.36769146 16.17929615 10.77261158 23.66210938 16.95703125 4.6754279 3.97082151 4.6754279 3.97082151 10.38671875 5.67578125 2.3548905-.25073761 2.3548905-.25073761 4.4765625-.83984375 1.97265625-.40234375 1.97265625-.40234375 3.83935547.21118164 2.87055969.52003845 3.81778995-.26010212 6.23876953-1.83227539.80735596-.51344971 1.61471191-1.02689941 2.4465332-1.5559082.86971436-.5693628 1.73942871-1.13872559 2.63549805-1.7253418 1.87116007-1.19334614 3.74361601-2.38466216 5.6171875-3.57421875.99483398-.63470215 1.98966797-1.2694043 3.01464844-1.92333984 5.60857654-3.5309752 11.30257563-6.91830638 16.99316406-10.31494141 1.66421997-.99580078 1.66421997-.99580078 3.36206055-2.01171875 2.60763513-1.56001458 5.21609942-3.11862065 7.82543945-4.67578125-.495-1.485-.495-1.485-1-3-17.82-1.485-17.82-1.485-36-3-.66 2.64-1.32 5.28-2 8-2.35771338 2.48515735-4.21153246 3.68876281-7.375 4.9375-4.3851589.10440855-7.8263334-1.75906326-11.4375-4.125-1.9462143-2.97053762-2.36869758-6.37491179-3.1875-9.8125-14.01303843-.91567112-27.95906245-1.12311627-42-1zm-8 7c.66623864 6.17551969 2.26309678 11.89605754 4.125 17.8125.27070313.95326172.54140625 1.90652344.8203125 2.88867188.83504834 2.63002947 1.63332503 4.93227968 3.0546875 7.29882812 3.49597305 1.68222052 3.49597305 1.68222052 7 2 2.55395319 1.95803078 2.95557293 2.86671878 4 6 9.35912329.99263429 18.60394198 1.10731538 28 1l3-7c-.63421875-.41507812-1.2684375-.83015625-1.921875-1.2578125-6.74779464-4.45503568-13.39630442-9.03651575-20.015625-13.6796875-1.29006958-.90347168-1.29006958-.90347168-2.60620117-1.82519531-3.85195881-2.69976963-7.69845878-5.4062132-11.52661133-8.13964844-.89730835-.6353064-.89730835-.6353064-1.81274414-1.28344727-1.56448487-1.10780721-3.12411618-2.22246002-4.68334961-3.33764648-2.91451157-1.76835534-4.35550778-2.01560548-7.43359375-.4765625zm113 3c-10.69766859 6.39670042-21.38282824 12.81127802-31.99755859 19.3449707-4.29038338 2.63463107-8.61830384 5.17928103-13.00244141 7.6550293.8604139 4.33229715.8604139 4.33229715 3 8 5.23627327.29168353 10.47512881.31400875 15.71875.35009766 1.76738646.01656924 3.53470565.04387231 5.30175781.08203125 2.54299812.05466257 5.08442389.07662442 7.62792969.09130859 1.18606339.03400406 1.18606339.03400406 2.39608765.06869507 2.49416742.04662308 2.49416742.04662308 5.95547485-.59213257 1.9146856-2.32439387 1.9146856-2.32439387 3-5 2.91765-1.9451 4.62537285-2.45276317 8-3 .17432891-3.74941253.28085841-7.49778509.375-11.25.05027344-1.06347656.10054687-2.12695312.15234375-3.22265625.33420418-5.45097858.33420418-5.45097858-1.88964844-10.15429687-1.80346354-1.27624906-1.80346354-1.27624906-4.63769531-2.37304688z" fill="#85c651" transform="translate(262.5 -.5625)"/><path d="m0 0c22.95521209 3.49318445 45.84744203 3.14537545 68.76757812-.42089844 11.13393304-1.6990365 11.13393304-1.6990365 16.54492188-1.01660156 2.50160818 1.87620613 3.61945652 3.23891303 5 6 .48247424 4.26185581.60777052 6.23578484-2.109375 9.65234375-3.35675667 2.72623075-5.25569526 3.15531592-9.515625 3.59765625-1.12664062.12890625-2.25328125.2578125-3.4140625.390625-1.30710937.11859375-2.61421875.2371875-3.9609375.359375-.78371475.08182022-1.5674295.16364044-2.37489319.24794006-6.8546265.68832287-13.63324065.9126139-20.51963806.92002869-1.10864914.0033284-2.21729828.0066568-3.35954285.01008606-2.33709808.00503391-4.67420326.00740943-7.01130676.00724792-3.49955764.00216781-6.99878972.02031041-10.49829102.03930665-10.91287206.02788252-21.74725215-.15573682-32.62304687-1.11132813-.90257034-.07773148-1.80514069-.15546295-2.73506165-.23554993-5.57771495-.55377683-10.02967745-1.07914977-14.1907196-5.12773132-2.03023858-3.30853695-2.24458476-4.9299902-1.6875-8.75 4.61912246-9.44820504 14.87226487-6.01819592 23.6875-4.5625z" fill="#ff741e" transform="translate(221.6875 429.4375)"/><path d="m0 0c.65881165.04735794 1.31762329.09471588 1.99639893.14350891 1.40607124.10164781 2.81180681.20803138 4.2171936.31874085 3.64701673.28521901 7.29673602.52986295 10.94656372.77603149.71107407.04858658 1.42214813.09717316 2.1547699.14723206 11.26467774.75291265 22.37591707.44612867 33.63282776-.26051331 4.85589381-.29931262 9.7076731-.56481567 14.57177734-.6796875 1.19238281-.03738281 2.38476563-.07476562 3.61328125-.11328125 3.71130044.51401747 4.80262242 1.51749046 7.07421875 4.42578125 1.42662219 2.85324437 1.31033868 4.83454549 1 8-2.65428867 4.49187313-5.06329468 5.67640014-10 7-3.15312195.24723816-3.15312195.24723816-6.56518555.24291992-1.92811775.00461495-1.92811775.00461495-3.89518737.00932312-1.39211709-.00690253-2.7842324-.01416986-4.17634583-.02177429-1.44480854-.00119429-2.88961787-.00164444-4.33442688-.00138855-3.02521139-.00156079-6.05030379-.00981446-9.07548523-.02326965-3.84830042-.01691272-7.69646943-.0208161-11.54480267-.02005482-2.98485756-.00027417-5.96968728-.00579579-8.95453548-.01300144-1.41715154-.00314958-2.83430619-.00514524-4.25146103-.00589371-21.91731979-.02423549-21.91731979-.02423549-27.32756996-2.72936058-2.57925079-3.35302603-3.16718272-6.23841697-2.875-10.4375 1.18949316-2.87982555 2.11752589-4.40011663 4.6887207-6.14794922 3.18790157-1.1752167 5.72253949-.87298751 9.10424805-.60986328z" fill="#ff741e" transform="translate(220.792969 454.242188)"/><path d="m0 0c2.44294199 2.94590064 3.04276854 3.96338509 3.5625 7.75-.51054576 4.44904165-1.62933181 6.24894494-4.65625 9.42578125-2.86260798 2.22856542-5.21659812 2.4515306-8.78125 2.38671875-3.27293835-.76114845-4.80392405-1.82512145-7.3125-4.0625-2.32532621-4.04779007-2.62587744-7.37393794-1.6875-11.9375 1.63343524-3.10546383 3.6828834-5.3414417 6.875-6.9375 4.98872007-.14672706 8.10364413.07156785 12 3.375z" fill="#dcdf12" transform="translate(63.875 170.4375)"/><path d="m0 0h34c-2.25271318 7.88449612-2.25271318 7.88449612-5.5 10.375-.91265625.72316406-.91265625.72316406-1.84375 1.4609375-5.12311553 3.60068026-11.64989818 2.63555087-17.65625 2.1640625-3.67802496-1.49614575-5.21090891-2.45837803-7.01171875-5.9765625-1.08771375-2.70697992-1.98828125-5.09045781-1.98828125-8.0234375z" fill="#ff741e" transform="translate(238 479)"/><path d="m0 0c2.96042112 2.58249502 4.59480753 4.1801882 5.4453125 8 .20978357 3.69219084-.33735495 5.83086651-2.3203125 8.9375-2.89872935 2.81347261-3.74717779 3.02471778-7.875 3.4375-3.18509363-.05221465-5.11463972-.5374458-7.6875-2.4375-3.0740335-3.52389206-3.64408318-5.28725862-3.5625-9.9375 1.2812399-3.91908675 2.37452388-5.55932365 5.75-7.9375 4.03315844-1.31853257 6.19108767-1.3170729 10.25-.0625z" fill="#ece606" transform="translate(158 10)"/><path d="m0 0c3.16872216.68885264 4.96142228 2.13674555 7.15625 4.46875 1.60086627 3.20173254 1.49917089 6.52577059 1 10-1.79363911 2.8100346-3.01880935 4.50940468-6 6-4.7040151.6469176-7.99101607.63833677-12.0625-1.9375-2.62233387-4.14497935-2.95132523-7.28662909-1.9375-12.0625 2.36011822-5.53329152 6.16656607-6.84722893 11.84375-6.46875z" fill="#4bbe7c" transform="translate(446.84375 152.53125)"/><path d="m0 0c3.38121991 2.44598887 4.76936783 3.89296559 5.625 8-.84881992 4.0743356-2.30225596 5.54405875-5.625 8-3.78454468.70960213-5.46714413.27801176-8.875-1.5-2.58543632-3.04168979-2.81510681-4.70007233-2.5390625-8.59375.4140625-1.90625.4140625-1.90625 1.9765625-4.40625 3.42886114-2.11006839 5.47970351-2.12491523 9.4375-1.5z" fill="#efe704" transform="translate(90 71)"/><path d="m0 0c2 2.25 2 2.25 3 5-.81204413 3.17435434-1.68180575 4.68180575-4 7-6.46153846-.46153846-6.46153846-.46153846-9-3-.375-3.4375-.375-3.4375 0-7 2.96311996-3.64691687 5.72595679-3.45499343 10-2z" fill="#b2cc2f" transform="translate(341 31)"/><path d="m0 0c2.5.875 2.5.875 3.8125 3.4375.3403125 1.2065625.3403125 1.2065625.6875 2.4375-1.75 2.0625-1.75 2.0625-4 4-3.01811422-.17753613-3.83735215-.83735215-6-3 .25-3.0625.25-3.0625 1-6 2-1 2-1 4.5-.875z" fill="#1cba9f" transform="translate(435.5 268.125)"/><path d="m0 0c2.5.25 2.5.25 4.5 2.25.25 2.5.25 2.5 0 5-2 2-2 2-4.5 2.25-2.5-.25-2.5-.25-4.5-2.25-.25-2.5-.25-2.5 0-5 2-2 2-2 4.5-2.25z" fill="#1abaa0" transform="translate(344.5 364.75)"/></svg>